<svg id="Capa_1" enable-background="new 0 0 512 512" height="512" viewBox="0 0 512 512" width="512" xmlns="http://www.w3.org/2000/svg"><g id="XMLID_1044_"><g id="XMLID_1185_"><path id="XMLID_1045_" d="m228.667 146.667h54.666v-54.667h54.667v-54.667h54.667 54.666v54.667h54.667v54.667 54.666 54.667h-54.667v54.667h-54.666v54.666h-54.667v54.667h-54.667v54.667h-54.666v-54.667h-54.667v-54.667h-54.667v-54.666h-54.666v-54.667h-54.667v-54.667-54.666-54.667h54.667v-54.667h54.666 54.667v54.667h54.667z" fill="currentColor"/><g id="XMLID_1711_"><path id="XMLID_446_" d="m283.333 484.667h-54.666c-5.523 0-10-4.477-10-10v-44.667h-44.667c-5.523 0-10-4.477-10-10v-44.667h-44.666c-5.523 0-10-4.477-10-10v-44.667h-44.668c-5.523 0-10-4.477-10-10v-44.666h-44.666c-5.523 0-10-4.477-10-10v-164c0-5.523 4.477-10 10-10h44.667v-44.667c0-5.523 4.477-10 10-10h109.333c5.523 0 10 4.477 10 10v44.667h44.667c5.523 0 10 4.477 10 10v44.667h34.668v-44.667c0-5.523 4.477-10 10-10h44.665v-44.667c0-5.523 4.478-10 10-10h109.334c5.522 0 10 4.477 10 10v44.667h44.666c5.522 0 10 4.477 10 10v37c0 5.523-4.478 10-10 10s-10-4.477-10-10v-27h-44.666c-5.523 0-10-4.477-10-10v-44.667h-89.334v44.667c0 5.523-4.478 10-10 10h-44.666v44.667c0 5.523-4.478 10-10 10h-54.668c-5.523 0-10-4.477-10-10v-44.667h-44.666c-5.523 0-10-4.477-10-10v-44.667h-89.334v44.667c0 5.523-4.477 10-10 10h-44.666v144h44.666c5.523 0 10 4.477 10 10v44.667h44.667c5.523 0 10 4.477 10 10v44.667h44.667c5.523 0 10 4.477 10 10v44.666h44.667c5.523 0 10 4.477 10 10l.001 44.667h34.666v-44.667c0-5.523 4.477-10 10-10h44.666v-44.667c0-5.523 4.478-10 10-10h44.667v-44.667c0-5.523 4.478-10 10-10h44.667v-44.666c0-5.523 4.477-10 10-10h44.666v-27c0-5.523 4.478-10 10-10s10 4.477 10 10v37c0 5.523-4.478 10-10 10h-44.666v44.667c0 5.523-4.478 10-10 10h-44.667v44.667c0 5.523-4.477 10-10 10h-44.667v44.666c0 5.523-4.478 10-10 10h-44.666l-.001 44.667c0 5.523-4.478 10-10 10z"/></g></g><g id="XMLID_2186_"><g id="XMLID_2187_"><path id="XMLID_445_" d="m502 184c-2.63 0-5.21-1.07-7.07-2.93s-2.93-4.44-2.93-7.07 1.069-5.21 2.93-7.07c1.86-1.86 4.44-2.93 7.07-2.93s5.21 1.07 7.069 2.93c1.86 1.86 2.931 4.44 2.931 7.07s-1.07 5.21-2.931 7.07c-1.859 1.86-4.439 2.93-7.069 2.93z"/></g></g></g></svg>