<svg id="_x33_0" enable-background="new 0 0 64 64" height="512" viewBox="0 0 64 64" width="512" xmlns="http://www.w3.org/2000/svg"><g><g><g><path d="m57 34-14 15v13h-22v-13l-14-15 5-4 15 14v6c1.28-1.28 3.02-2 4.83-2h.17.17c1.81 0 3.55.72 4.83 2v-6l15-14z" fill="#fcd770"/></g><g><path d="m37 44v6c-1.28-1.28-3.02-2-4.83-2h-.17z" fill="#ffc729"/></g><g><path d="m32 48h-.17c-1.81 0-3.55.72-4.83 2v-6z" fill="#ffc729"/></g><g><path d="m59.8 29c1.22 0 2.2.98 2.2 2.2 0 1.05-.74 1.95-1.77 2.15l-3.23.65-5-4 .4-1.19c.36-1.08 1.37-1.81 2.51-1.81.7 0 1.37.28 1.86.77l1.23 1.23z" fill="#f0d0b4"/></g><g><path d="m61 13c.64.64 1 1.51 1 2.41 0 1.01-.45 1.96-1.22 2.61l-4.78 3.98-4.78-3.98c-.77-.65-1.22-1.6-1.22-2.61 0-.9.36-1.77 1-2.41s1.51-1 2.41-1h.18c.9 0 1.77.36 2.41 1 .64-.64 1.51-1 2.41-1h.18c.9 0 1.77.36 2.41 1z" fill="#ff826e"/></g><g><path d="m47 3c.64.64 1 1.51 1 2.41 0 1.01-.45 1.96-1.22 2.61l-4.78 3.98-4.78-3.98c-.77-.65-1.22-1.6-1.22-2.61 0-.9.36-1.77 1-2.41s1.51-1 2.41-1h.18c.9 0 1.77.36 2.41 1 .64-.64 1.51-1 2.41-1h.18c.9 0 1.77.36 2.41 1z" fill="#ff826e"/></g><g><path d="m40 27.02c-.61.6-1.44.98-2.38.98-1.02 0-1.99-.47-2.63-1.27l-1.19-1.48c-1.14-1.42-2.86-2.25-4.68-2.25h-.12c-1.3 0-2.58.39-3.66 1.11-.84.56-1.34 1.49-1.34 2.5v.23c0 .11 0 .21.01.32l.13 1.84h-1.14c-.8 0-1.52.31-2.05.81l-.66-2.64c-.19-.78-.29-1.57-.29-2.38 0-2.7 1.1-5.15 2.87-6.92s4.22-2.87 6.92-2.87h4.42c5.4 0 9.79 4.39 9.79 9.79 0 .81-.1 1.6-.29 2.38l-.66 2.64c-.53-.5-1.25-.81-2.05-.81h-1.14z" fill="#656d78"/></g><g><path d="m43.05 29.81c.59.55.95 1.33.95 2.19 0 .83-.34 1.58-.88 2.12s-1.29.88-2.12.88h-1.64c.07-.32.12-.65.14-.98l.36-5.02h1.14c.8 0 1.52.31 2.05.81z" fill="#f0d0b4"/></g><g><path d="m40 27.02-.14 1.98-.36 5.02c-.02.33-.07.66-.14.98-.48 2.38-2.08 4.33-4.21 5.3-.96.45-2.03.7-3.15.7s-2.19-.25-3.15-.7c-.73-.33-1.39-.78-1.97-1.32-1.12-1.04-1.92-2.42-2.24-3.98-.07-.32-.12-.65-.14-.98l-.36-5.02-.13-1.84c-.01-.11-.01-.21-.01-.32v-.23c0-1.01.5-1.94 1.34-2.5 1.08-.72 2.36-1.11 3.66-1.11h.12c1.82 0 3.54.83 4.68 2.25l1.19 1.48c.64.8 1.61 1.27 2.63 1.27.94 0 1.77-.38 2.38-.98z" fill="#f0d0b4"/></g><g><path d="m35.15 40.31 1.85 3.69-5 4-5-4 1.85-3.69v-.01c.96.45 2.03.7 3.15.7s2.19-.25 3.15-.7z" fill="#f0d0b4"/></g><g><path d="m35 33v1c0 1.66-1.34 3-3 3s-3-1.34-3-3v-1z" fill="#ff826e"/></g><g><path d="m27 3c.64.64 1 1.51 1 2.41 0 1.01-.45 1.96-1.22 2.61l-4.78 3.98-4.78-3.98c-.77-.65-1.22-1.6-1.22-2.61 0-.9.36-1.77 1-2.41s1.51-1 2.41-1h.18c.9 0 1.77.36 2.41 1 .64-.64 1.51-1 2.41-1h.18c.9 0 1.77.36 2.41 1z" fill="#ff826e"/></g><g><path d="m24.64 35h-1.64c-.83 0-1.58-.34-2.12-.88s-.88-1.29-.88-2.12c0-.86.36-1.64.95-2.19.53-.5 1.25-.81 2.05-.81h1.14l.36 5.02c.02.33.07.66.14.98z" fill="#f0d0b4"/></g><g><path d="m13 13c.64.64 1 1.51 1 2.41 0 1.01-.45 1.96-1.22 2.61l-4.78 3.98-4.78-3.98c-.77-.65-1.22-1.6-1.22-2.61 0-.9.36-1.77 1-2.41s1.51-1 2.41-1h.18c.9 0 1.77.36 2.41 1 .64-.64 1.51-1 2.41-1h.18c.9 0 1.77.36 2.41 1z" fill="#ff826e"/></g><g><path d="m11.6 28.81.4 1.19-5 4-3.23-.65c-1.03-.2-1.77-1.1-1.77-2.15 0-.61.24-1.16.64-1.56s.95-.64 1.56-.64h1.8l1.23-1.23c.49-.49 1.16-.77 1.86-.77 1.14 0 2.15.73 2.51 1.81z" fill="#f0d0b4"/></g></g><g><path d="m32 38c2.206 0 4-1.794 4-4v-2h-8v2c0 2.206 1.794 4 4 4zm2-4c0 1.103-.897 2-2 2s-2-.897-2-2z"/><path d="m22 13.302 5.418-4.515c1.005-.838 1.582-2.07 1.582-3.379 0-1.174-.457-2.278-1.293-3.115-.834-.834-1.942-1.293-3.121-1.293h-.172c-.87 0-1.702.25-2.414.717-.712-.467-1.544-.717-2.414-.717h-.172c-1.179 0-2.287.459-3.127 1.298-.83.831-1.287 1.936-1.287 3.11 0 1.31.577 2.541 1.582 3.379zm-4.293-9.594c.456-.457 1.063-.708 1.707-.708h.172c.645 0 1.251.251 1.707.708l.707.706.707-.706c.456-.457 1.063-.708 1.707-.708h.172c.645 0 1.251.251 1.711.711.453.454.703 1.057.703 1.697 0 .714-.314 1.386-.863 1.843l-4.137 3.447-4.137-3.447c-.549-.457-.863-1.129-.863-1.843 0-.64.25-1.243.707-1.7z"/><path d="m8 23.302 5.418-4.515c1.005-.838 1.582-2.07 1.582-3.379 0-1.174-.457-2.278-1.293-3.115-.834-.834-1.942-1.293-3.121-1.293h-.172c-.87 0-1.702.25-2.414.717-.712-.467-1.544-.717-2.414-.717h-.172c-1.179 0-2.287.459-3.127 1.298-.83.831-1.287 1.936-1.287 3.11 0 1.31.577 2.541 1.582 3.379zm-4.293-9.594c.456-.457 1.063-.708 1.707-.708h.172c.645 0 1.251.251 1.707.708l.707.706.707-.706c.456-.457 1.063-.708 1.707-.708h.172c.645 0 1.251.251 1.711.711.453.454.703 1.057.703 1.697 0 .714-.314 1.386-.863 1.843l-4.137 3.447-4.137-3.447c-.549-.457-.863-1.129-.863-1.843 0-.64.25-1.243.707-1.7z"/><path d="m42 13.302 5.418-4.515c1.005-.838 1.582-2.07 1.582-3.379 0-1.174-.457-2.278-1.293-3.115-.834-.834-1.942-1.293-3.121-1.293h-.172c-.87 0-1.702.25-2.414.717-.712-.467-1.544-.717-2.414-.717h-.172c-1.179 0-2.287.459-3.127 1.298-.83.831-1.287 1.936-1.287 3.11 0 1.31.577 2.541 1.582 3.379zm-4.293-9.594c.456-.457 1.063-.708 1.707-.708h.172c.645 0 1.251.251 1.707.708l.707.706.707-.706c.456-.457 1.063-.708 1.707-.708h.172c.645 0 1.251.251 1.711.711.453.454.703 1.057.703 1.697 0 .714-.314 1.386-.863 1.843l-4.137 3.447-4.137-3.447c-.549-.457-.863-1.129-.863-1.843 0-.64.25-1.243.707-1.7z"/><path d="m50.582 18.787 5.418 4.515 5.418-4.515c1.005-.838 1.582-2.07 1.582-3.379 0-1.174-.457-2.278-1.293-3.115-.834-.834-1.942-1.293-3.121-1.293h-.172c-.87 0-1.702.25-2.414.717-.712-.467-1.544-.717-2.414-.717h-.172c-1.179 0-2.287.459-3.127 1.298-.83.831-1.287 1.936-1.287 3.11 0 1.309.577 2.541 1.582 3.379zm1.125-5.079c.456-.457 1.063-.708 1.707-.708h.172c.645 0 1.251.251 1.707.708l.707.706.707-.706c.456-.457 1.063-.708 1.707-.708h.172c.645 0 1.251.251 1.711.711.453.454.703 1.057.703 1.697 0 .714-.314 1.386-.863 1.843l-4.137 3.447-4.137-3.447c-.549-.457-.863-1.129-.863-1.843 0-.64.25-1.243.707-1.7z"/><path d="m59.802 28h-1.388l-.933-.933c-.688-.688-1.603-1.067-2.576-1.067-1.57 0-2.959 1.001-3.456 2.491l-.317.951-13.836 12.914-.82-1.641c1.719-1.07 3.034-2.736 3.651-4.714h.873c2.206 0 4-1.794 4-4 0-.925-.329-1.767-.858-2.446l.537-2.143c.213-.858.321-1.738.321-2.618 0-5.952-4.842-10.794-10.794-10.794h-4.412c-5.952 0-10.794 4.842-10.794 10.794 0 .879.108 1.76.322 2.618l.536 2.141c-.529.68-.858 1.522-.858 2.447 0 2.206 1.794 4 4 4h.874c.617 1.978 1.931 3.645 3.651 4.714l-.82 1.641-13.837-12.913-.317-.952c-.497-1.489-1.886-2.49-3.456-2.49-.973 0-1.888.379-2.576 1.067l-.933.933h-1.388c-1.763 0-3.198 1.435-3.198 3.198 0 1.519 1.081 2.838 2.57 3.136l2.918.583 13.512 14.477v13.606h24v-13.606l13.512-14.477 2.918-.583c1.489-.298 2.57-1.617 2.57-3.136 0-1.763-1.435-3.198-3.198-3.198zm-31.802 18.081 1.575 1.26c-.547.164-1.077.375-1.575.655zm13-12.081h-.498l.286-4h.212c1.103 0 2 .897 2 2s-.897 2-2 2zm-20-2c0-1.103.897-2 2-2h.212l.285 4h-.497c-1.103 0-2-.897-2-2zm2-5.395v.236c0 .131.005.261.015.388l.055.771h-.07c-.495 0-.964.102-1.403.267l-.335-1.339c-.174-.699-.262-1.417-.262-2.134 0-4.849 3.945-8.794 8.794-8.794h4.412c4.849 0 8.794 3.945 8.794 8.794 0 .716-.088 1.435-.262 2.133l-.335 1.34c-.438-.165-.908-.267-1.403-.267h-.069l.04-.561c.642-.761 1.029-1.744 1.029-2.816v-.623h-2v.623c0 1.311-1.066 2.377-2.377 2.377-.726 0-1.402-.325-1.855-.893l-1.185-1.48c-1.336-1.669-3.328-2.627-5.467-2.627h-.116c-1.506 0-2.965.442-4.219 1.277-1.115.744-1.781 1.988-1.781 3.328zm2.498 7.341-.489-6.862c-.006-.081-.009-.162-.009-.243v-.236c0-.67.333-1.292.891-1.664.923-.615 1.999-.941 3.109-.941h.116c1.527 0 2.95.684 3.904 1.877l1.185 1.48c.835 1.044 2.081 1.643 3.418 1.643.432 0 .85-.063 1.244-.18l-.365 5.126c-.243 3.395-3.099 6.054-6.502 6.054s-6.259-2.659-6.502-6.054zm6.502 8.054c.928 0 1.822-.159 2.663-.439l1.081 2.163-3.744 2.995-3.744-2.995 1.081-2.163c.841.28 1.735.439 2.663.439zm4 4.081v1.915c-.498-.28-1.028-.491-1.575-.655zm-33-14.883c0-.66.537-1.198 1.198-1.198h2.216l1.519-1.519c.31-.31.723-.481 1.162-.481.708 0 1.335.452 1.56 1.123l.177.531-4.092 3.274-2.776-.555c-.559-.112-.964-.606-.964-1.175zm39 17.408v12.394h-20v-12.394l-13.532-14.499 3.482-2.786 14.05 13.114v7.98l1.707-1.708c1.101-1.101 2.564-1.707 4.121-1.707h.344c1.557 0 3.021.606 4.121 1.707l1.707 1.708v-7.98l14.05-13.114 3.482 2.786zm18.037-16.233-2.776.555-4.092-3.274.177-.53c.224-.672.851-1.124 1.559-1.124.438 0 .852.171 1.162.481l1.519 1.519h2.216c.661 0 1.198.538 1.198 1.198 0 .569-.405 1.063-.963 1.175z"/></g></g></svg>